<?xml version="1.0" encoding="UTF-8" standalone="no"?>
<svg
   xmlns:dc="http://purl.org/dc/elements/1.1/"
   xmlns:cc="http://creativecommons.org/ns#"
   xmlns:rdf="http://www.w3.org/1999/02/22-rdf-syntax-ns#"
   xmlns:svg="http://www.w3.org/2000/svg"
   xmlns="http://www.w3.org/2000/svg"
   xmlns:sodipodi="http://sodipodi.sourceforge.net/DTD/sodipodi-0.dtd"
   xmlns:inkscape="http://www.inkscape.org/namespaces/inkscape"
   width="250"
   height="50"
   viewBox="0 0 250 50"
   fill="none"
   version="1.1"
   id="svg29"
   sodipodi:docname="logo-full.svg"
   inkscape:version="1.0.2-2 (e86c870879, 2021-01-15)">
  <metadata
     id="metadata33">
    <rdf:RDF>
      <cc:Work
         rdf:about="">
        <dc:format>image/svg+xml</dc:format>
        <dc:type
           rdf:resource="http://purl.org/dc/dcmitype/StillImage" />
      </cc:Work>
    </rdf:RDF>
  </metadata>
  <sodipodi:namedview
     pagecolor="#ffffff"
     bordercolor="#666666"
     borderopacity="1"
     objecttolerance="10"
     gridtolerance="10"
     guidetolerance="10"
     inkscape:pageopacity="0"
     inkscape:pageshadow="2"
     inkscape:window-width="1920"
     inkscape:window-height="1027"
     id="namedview31"
     showgrid="false"
     inkscape:zoom="3.6317004"
     inkscape:cx="95.706181"
     inkscape:cy="44.189643"
     inkscape:window-x="-8"
     inkscape:window-y="-8"
     inkscape:window-maximized="1"
     inkscape:current-layer="svg29"
     inkscape:document-rotation="0" />
  <defs
     id="defs27">
    <clipPath
       id="clip0">
      <rect
         width="250"
         height="50"
         fill="white"
         id="rect24" />
    </clipPath>
  </defs>
  <g
     aria-label="FocusTime"
     id="text12"
     style="font-style:italic;font-variant:normal;font-weight:bold;font-stretch:normal;font-size:47.2376px;line-height:1.25;font-family:Rajdhani;-inkscape-font-specification:'Rajdhani Bold Italic';stroke-width:1.18095">
    <path
       d="m 51.441468,40.899368 h -4.015196 q -0.99199,0 -0.80304,-0.991989 l 5.668512,-28.389797 q 0.236188,-0.991989 1.228178,-0.991989 h 15.068794 q 0.944752,0 0.708564,0.991989 l -0.614089,3.212157 q -0.18895,0.991989 -1.133702,0.991989 h -9.494758 q -0.566851,0 -0.708564,0.519614 l -1.464365,7.321828 q -0.09448,0.566851 0.472376,0.566851 h 8.077629 q 0.99199,0 0.803039,0.991989 l -0.661326,3.16492 q -0.188951,1.039227 -1.18094,1.039227 h -8.077629 q -0.566852,0 -0.661327,0.519613 l -2.031217,10.061609 q -0.18895,0.991989 -1.180939,0.991989 z"
       style="fill:#2b7a78;fill-opacity:1;stroke-width:1.18095"
       id="path16" />
    <path
       d="m 78.744745,40.899368 h -4.204147 q -3.73177,0 -5.385086,-1.983979 -1.606078,-1.983979 -0.850277,-5.715749 l 1.700554,-8.691718 q 0.755802,-3.731771 3.164919,-5.71575 2.456355,-1.983979 6.188125,-1.983979 h 4.204147 q 3.684532,0 5.337848,2.031217 1.653316,1.983979 0.897515,5.668512 l -1.700554,8.691718 q -0.755801,3.684532 -3.212157,5.715749 -2.456355,1.983979 -6.140887,1.983979 z M 76.47734,35.75047 h 2.409117 q 1.511604,0 2.267405,-0.614089 0.755802,-0.614089 1.039227,-2.125692 l 1.700554,-8.313817 q 0.283425,-1.511603 -0.236188,-2.125692 -0.519614,-0.614089 -2.031217,-0.614089 h -2.409117 q -1.511603,0 -2.267405,0.614089 -0.708564,0.614089 -0.99199,2.125692 l -1.700553,8.313817 q -0.283426,1.511603 0.18895,2.125692 0.519614,0.614089 2.031217,0.614089 z"
       style="fill:#2b7a78;fill-opacity:1;stroke-width:1.18095"
       id="path18" />
    <path
       d="m 107.46515,36.695222 -0.66132,3.259394 q -0.0945,0.519614 -0.3779,0.755802 -0.23619,0.18895 -0.80304,0.18895 h -7.038405 q -3.731771,0 -5.385087,-1.983979 Q 91.59332,36.93141 92.349122,33.19964 l 1.700553,-8.691718 q 0.755802,-3.731771 3.164919,-5.71575 2.456355,-1.983979 6.188126,-1.983979 h 7.0384 q 0.99199,0 0.80304,0.99199 l -0.66133,3.259394 q -0.0945,0.519614 -0.3779,0.755802 -0.23618,0.18895 -0.80304,0.18895 h -6.09365 q -1.46436,0 -2.22016,0.661326 -0.7558,0.614089 -1.08647,2.125692 l -1.606076,8.124867 q -0.330663,1.511603 0.188951,2.17293 0.519613,0.614088 1.983975,0.614088 h 6.09365 q 0.99199,0 0.80304,0.99199 z"
       style="fill:#2b7a78;fill-opacity:1;stroke-width:1.18095"
       id="path20" />
    <path
       d="m 119.36899,40.899368 h -1.55884 q -3.63729,0 -5.10166,-1.983979 -1.46436,-1.983979 -0.70856,-5.715749 l 3.07044,-15.399457 q 0.18895,-0.99199 1.18094,-0.99199 h 4.0152 q 0.99199,0 0.80304,0.99199 l -3.02321,15.116031 q -0.33066,1.511603 0.18895,2.17293 0.51962,0.614088 1.98398,0.614088 h 1.74779 q 3.2594,0 3.96796,-3.590057 l 2.88149,-14.312992 q 0.18895,-0.99199 1.18094,-0.99199 h 3.96796 q 1.03923,0 0.85028,0.99199 l -4.44034,22.107196 q -0.18895,0.991989 -1.22817,0.991989 h -3.96796 q -0.99199,0 -0.80304,-0.991989 l 0.33066,-1.558841 h -0.18895 q -0.80304,1.275415 -2.2674,1.936742 -1.41713,0.614088 -2.8815,0.614088 z"
       style="fill:#2b7a78;fill-opacity:1;stroke-width:1.18095"
       id="path22" />
    <path
       d="m 144.49934,40.899368 h -8.97514 q -0.94476,0 -0.7558,-0.991989 l 0.61408,-3.023207 q 0.0945,-0.519613 0.33067,-0.708564 0.23619,-0.236188 0.80304,-0.236188 h 7.88868 q 2.31464,0 2.59806,-1.417128 l 0.0472,-0.236187 q 0.23619,-1.133703 -1.5116,-2.17293 l -4.15691,-2.598068 q -2.17293,-1.228177 -3.02321,-2.645305 -0.85027,-1.417128 -0.3779,-3.637296 0.66133,-3.306631 2.69255,-4.865472 2.07845,-1.558841 5.81022,-1.558841 h 7.88868 q 0.94475,0 0.7558,0.99199 l -0.61409,3.070444 q -0.0945,0.519613 -0.33066,0.755801 -0.23619,0.188951 -0.80304,0.188951 h -6.56603 q -2.31464,0 -2.55083,1.180939 l -0.0472,0.236188 q -0.23619,1.039228 1.60607,2.125692 l 4.20415,2.834256 q 2.17293,1.322653 2.88149,2.739781 0.70857,1.36989 0.28343,3.637295 -1.27542,6.329838 -8.69172,6.329838 z"
       style="fill:#2b7a78;fill-opacity:1;stroke-width:1.18095"
       id="path24" />
    <path
       d="m 165.9452,40.899368 h -3.96796 q -1.03923,0 -0.85028,-0.991989 l 4.72376,-23.666037 q 0.14172,-0.519614 -0.3779,-0.519614 h -5.38508 q -0.99199,0 -0.80304,-0.991989 l 0.61409,-3.212157 q 0.23618,-0.991989 1.22817,-0.991989 h 17.85582 q 0.99198,0 0.7558,0.991989 l -0.61409,3.212157 q -0.18895,0.991989 -1.18094,0.991989 h -5.38509 q -0.56685,0 -0.70856,0.519614 l -4.72376,23.666037 q -0.18895,0.991989 -1.18094,0.991989 z"
       style="fill:#3aafa9;fill-opacity:1;stroke-width:1.18095"
       id="path26" />
    <path
       d="m 182.8562,12.74576 0.85028,-4.1096714 q 0.18895,-0.944752 1.1337,-0.944752 h 4.10967 q 0.94476,0 0.7558,0.8975144 l -0.85027,4.156909 q -0.18895,0.944752 -1.1337,0.944752 H 183.612 q -0.94475,0 -0.7558,-0.944752 z m -5.43232,27.161619 4.44033,-22.107196 q 0.18895,-0.99199 1.13371,-0.99199 h 4.06243 q 0.99199,0 0.80304,0.99199 l -4.44034,22.107196 q -0.0945,0.614088 -0.3779,0.803039 -0.23618,0.18895 -0.7558,0.18895 h -4.06243 q -0.99199,0 -0.80304,-0.991989 z"
       style="fill:#3aafa9;fill-opacity:1;stroke-width:1.18095"
       id="path28" />
    <path
       d="m 193.67361,40.899368 h -4.0152 q -0.99199,0 -0.80304,-0.991989 l 4.44033,-22.107196 q 0.18895,-0.99199 1.18094,-0.99199 h 4.0152 q 0.99199,0 0.80304,0.99199 l -0.33066,1.55884 h 0.18895 q 0.80304,-1.133702 2.2674,-1.842266 1.5116,-0.708564 3.2594,-0.708564 h 1.32265 q 4.10967,0 5.29061,3.023206 2.22017,-3.023206 6.14089,-3.023206 h 1.36989 q 3.63729,0 5.10166,1.983979 1.46436,1.983979 0.70856,5.71575 l -3.07044,15.399457 q -0.18895,0.991989 -1.18094,0.991989 h -4.0152 q -0.99199,0 -0.80304,-0.991989 l 3.02321,-15.116032 q 0.33066,-1.511603 -0.18895,-2.125692 -0.47238,-0.661326 -1.98398,-0.661326 h -1.18094 q -3.25939,0 -3.96796,3.637295 l -2.88149,14.265755 q -0.18895,0.991989 -1.22818,0.991989 h -3.96796 q -0.99199,0 -0.80304,-0.991989 l 3.02321,-15.116032 q 0.33066,-1.511603 -0.18895,-2.125692 -0.51961,-0.661326 -2.03122,-0.661326 H 201.704 q -3.2594,0 -3.96796,3.590057 l -2.88149,14.312993 q -0.18896,0.991989 -1.18094,0.991989 z"
       style="fill:#3aafa9;fill-opacity:1;stroke-width:1.18095"
       id="path30" />
    <path
       d="m 244.12328,40.899368 h -10.43951 q -3.73177,0 -5.38508,-1.983979 -1.60608,-1.983979 -0.85028,-5.715749 l 1.70055,-8.691718 q 0.75581,-3.731771 3.16492,-5.71575 2.45636,-1.983979 6.18813,-1.983979 h 3.73177 q 3.73177,0 5.33785,1.983979 1.65331,1.983979 0.89751,5.71575 l -1.18094,5.999175 q -0.18895,0.991989 -1.18094,0.991989 h -11.85664 q -0.56685,0 -0.66132,0.519614 l -0.23619,1.039227 q -0.28343,1.464365 0.23619,2.125692 0.51961,0.614089 2.03122,0.614089 h 9.54199 q 0.99199,0 0.7558,1.039227 l -0.61409,3.117681 q -0.0945,0.519614 -0.3779,0.755802 -0.23619,0.18895 -0.80304,0.18895 z M 235.05366,27.48389 h 6.42432 q 0.51961,0 0.61409,-0.519613 l 0.47237,-2.267405 q 0.28343,-1.511603 -0.23619,-2.125692 -0.47237,-0.614089 -1.98398,-0.614089 h -1.98397 q -1.51161,0 -2.26741,0.614089 -0.70856,0.614089 -0.99199,2.125692 l -0.47237,2.267405 q -0.0945,0.519613 0.42513,0.519613 z"
       style="fill:#3aafa9;fill-opacity:1;stroke-width:1.18095"
       id="path32" />
  </g>
  <circle
     style="fill:#17252a;fill-opacity:1;stroke:none;stroke-width:1.00157;stroke-linecap:round;stroke-linejoin:round;stroke-miterlimit:4;stroke-dasharray:none;stroke-opacity:1"
     id="path1120"
     cx="23.503187"
     cy="25.311527"
     r="22.098215" />
  <a
     id="a1430"
     transform="matrix(3.7795276,0,0,3.7795276,-68.65367,-342.88166)"
     style="fill:#2b7a78;fill-opacity:1">
    <rect
       style="fill:#2b7a78;fill-opacity:1;stroke:none;stroke-width:0.174833;stroke-linecap:round;stroke-linejoin:round;stroke-miterlimit:4;stroke-dasharray:none;stroke-opacity:1"
       id="rect1134"
       width="0.85830468"
       height="5.9333086"
       x="23.970003"
       y="92.057014"
       ry="0.43872237" />
  </a>
  <rect
     style="fill:#def2f1;fill-opacity:1;stroke:none;stroke-width:0.57837;stroke-linecap:round;stroke-linejoin:round;stroke-miterlimit:4;stroke-dasharray:none;stroke-opacity:1;paint-order:normal"
     id="rect1134-8"
     width="3.0047061"
     height="18.607281"
     x="33.459541"
     y="-18.963108"
     ry="1.4683049"
     transform="matrix(0.63115981,0.77565282,-0.82325938,0.56766539,0,0)" />
</svg>
